#!OML:ASF F:\VICON\USERDATA\INSTALL\rory3\rory3.ASF
:FULLY-SPECIFIED
:DEGREES
427
root 0.0235112 17.7571 13.1971 -0.766896 -5.68915 -6.57816
lowerback 8.73835 2.43069 6.45394
upperback -0.325892 3.98249 1.55943
thorax -4.9195 1.82007 -2.48925
lowerneck -16.8064 -3.04237 -1.20878
upperneck 20.6883 -4.00593 0.42231
head 9.32631 -1.91622 -0.169699
rclavicle -2.54242e-014 -1.25731e-014
rhumerus -21.2652 -9.5297 -82.1653
rradius 34.4008
rwrist -2.84736
rhand -19.1409 21.4818
rfingers 7.12502
rthumb 7.16914 -8.37673
lclavicle -2.54242e-014 -1.25731e-014
lhumerus -40.6286 15.5933 76.0611
lradius 16.3698
lwrist -3.19228
lhand -26.5367 22.9173
lfingers 7.12502
lthumb 0.0273632 52.897
rfemur 11.8583 4.98555 32.2968
rtibia 30.6067
rfoot -13.5813 1.81824
rtoes -2.77814
lfemur -26.3547 -3.79727 -13.7911
ltibia 24.0945
lfoot -4.7171 0.137858
ltoes -0.474831
428
root 0.0328093 17.7656 13.4194 -1.02089 -5.51387 -5.88383
lowerback 8.6652 2.43034 5.69833
upperback -0.324992 3.89029 1.38097
thorax -4.92026 1.79231 -2.2415
lowerneck -16.6648 -3.05304 -1.29023
upperneck 20.9445 -4.05448 0.62906
head 9.39679 -1.92121 -0.0917351
rclavicle 4.29841e-014 -8.44835e-016
rhumerus -21.5684 -9.98945 -82.0625
rradius 33.8423
rwrist -2.11015
rhand -19.3902 22.6708
rfingers 7.12502
rthumb 6.9285 -7.19584
lclavicle 4.29841e-014 -8.44835e-016
lhumerus -40.6568 15.5316 75.9166
lradius 16.0683
lwrist -3.53878
lhand -27.3106 23.7223
lfingers 7.12502
lthumb -0.720102 53.7009
rfemur 11.6017 4.99212 31.4843
rtibia 32.4377
rfoot -11.9142 2.23476
rtoes -2.19756
lfemur -26.0349 -4.01508 -14.6848
ltibia 24.9441
lfoot -5.09243 -1.33382
ltoes -1.71176
429
root 0.045754 17.7708 13.6517 -1.3605 -5.07703 -5.21452
lowerback 8.64026 2.32683 5.06769
upperback -0.350763 3.67814 1.18446
thorax -4.97416 1.69981 -2.07038
lowerneck -16.4935 -3.07691 -1.40892
upperneck 21.1585 -4.12013 0.869162
head 9.44914 -1.93385 0.0027471
rclavicle 5.28379e-014 1.00386e-014
rhumerus -21.7955 -10.7695 -81.9437
rradius 33.0601
rwrist -1.61342
rhand -19.5635 23.6146
rfingers 7.12502
rthumb 6.76121 -6.25747
lclavicle 5.28379e-014 1.00386e-014
lhumerus -40.6775 15.2738 75.8061
lradius 16.1424
lwrist -2.86072
lhand -26.3035 26.3523
lfingers 7.12502
lthumb 0.252573 56.3319
rfemur 11.3124 4.50297 30.5572
rtibia 34.5052
rfoot -9.8287 2.79582
rtoes -0.935228
lfemur -25.5164 -4.36769 -15.5887
ltibia 25.6085
lfoot -4.87109 -3.25655
ltoes -0.809875
430
root 0.0603219 17.772 13.8753 -1.70961 -4.58813 -4.76637
lowerback 8.62795 2.17647 4.6725
upperback -0.348312 3.43265 1.09668
thorax -4.99833 1.5874 -1.91207
lowerneck -16.2002 -3.13161 -1.55334
upperneck 21.2018 -4.185 0.959838
head 9.4164 -1.96732 0.0538076
rclavicle 2.32236e-014 1.42628e-014
rhumerus -22.0419 -11.2842 -81.7806
rradius 32.4907
rwrist -1.42465
rhand -19.8978 24.115
rfingers 7.12502
rthumb 6.43849 -5.76714
lclavicle 2.32236e-014 1.42628e-014
lhumerus -40.7897 15.4355 75.5228
lradius 16.4008
lwrist -2.60505
lhand -25.0986 26.4299
lfingers 7.12502
lthumb 1.41633 56.4049
rfemur 10.8833 3.87975 29.8305
rtibia 36.6818
rfoot -7.30539 3.11331
rtoes -1.20986
lfemur -24.9416 -4.77917 -16.2452
ltibia 26.2019
lfoot -3.99931 -4.74598
ltoes 0.260191
431
root 0.0785345 17.774 14.0961 -2.01554 -4.30846 -4.26179
lowerback 8.61881 2.10103 4.28633
upperback -0.259503 3.28206 0.958766
thorax -4.92208 1.52457 -1.81951
lowerneck -16.1597 -3.22033 -1.51799
upperneck 21.2913 -4.29274 0.84308
head 9.43786 -2.02766 -0.00619476
rclavicle 4.98359e-015 2.98177e-015
rhumerus -22.2127 -11.9277 -81.6513
rradius 32.1192
rwrist -1.10546
rhand -20.0269 24.3834
rfingers 7.12502
rthumb 6.31388 -5.50246
lclavicle 4.98359e-015 2.98177e-015
lhumerus -40.7041 15.8102 75.1952
lradius 16.3764
lwrist -2.93977
lhand -27.4728 22.402
lfingers 7.12502
lthumb -0.876751 52.3799
rfemur 10.25 3.31761 28.9181
rtibia 38.9561
rfoot -4.46001 3.47265
rtoes -0.573728
lfemur -24.319 -4.83536 -17.0718
ltibia 26.8664
lfoot -3.54983 -5.27476
ltoes -2.70263
432
root 0.100476 17.7797 14.3259 -2.24242 -4.20019 -3.86615
lowerback 8.53515 2.08848 4.06205
upperback -0.197328 3.22799 0.796691
thorax -4.81537 1.50508 -1.85085
lowerneck -16.2184 -3.22174 -1.33081
upperneck 21.4789 -4.32004 0.728412
head 9.50736 -2.03655 -0.0828623
rclavicle 3.12045e-014 -5.36719e-015
rhumerus -22.6137 -12.933 -81.5021
rradius 31.9716
rwrist -0.691669
rhand -19.8432 23.9973
rfingers 7.12502
rthumb 6.49118 -5.88322
lclavicle 3.12045e-014 -5.36719e-015
lhumerus -40.6846 15.9618 74.8821
lradius 16.4287
lwrist -2.66059
lhand -30.3289 20.6083
lfingers 7.12502
lthumb -3.63507 50.557
rfemur 9.47405 2.77086 28.0041
rtibia 41.2925
rfoot -1.35567 4.14478
rtoes -0.684862
lfemur -23.6986 -4.54743 -17.8567
ltibia 27.6306
lfoot -3.57099 -5.11991
ltoes 0.957958
433
root 0.119604 17.7833 14.5489 -2.40769 -4.20635 -3.76614
lowerback 8.44995 2.08906 4.05767
upperback -0.182389 3.22239 0.774369
thorax -4.751 1.50399 -1.86657
lowerneck -15.9034 -3.14645 -1.51776
upperneck 21.2983 -4.24833 1.06925
head 9.3978 -1.98321 0.0815119
rclavicle -2.06503e-014 1.0138e-014
rhumerus -23.1231 -13.5175 -81.3019
rradius 31.873
rwrist -0.583813
rhand -19.7875 23.3624
rfingers 7.12502
rthumb 6.54495 -6.51646
lclavicle -2.06503e-014 1.0138e-014
lhumerus -40.8113 15.6337 74.9161
lradius 17.026
lwrist -1.39352
lhand -29.3661 29.2771
lfingers 7.12502
lthumb -2.70529 59.2397
rfemur 8.46924 2.34148 27.4607
rtibia 43.6707
rfoot 1.91106 4.88099
rtoes -2.6803
lfemur -23.1533 -4.05349 -18.2834
ltibia 28.3586
lfoot -3.78468 -4.84375
ltoes -2.07953
434
root 0.136653 17.7858 14.7559 -2.71975 -4.28325 -3.80463
lowerback 8.62786 2.08805 4.19972
upperback -0.0613746 3.23929 0.75797
thorax -4.71479 1.511 -1.96983
lowerneck -15.8266 -3.12965 -1.64311
upperneck 21.1549 -4.26957 1.40073
head 9.34502 -1.96752 0.215621
rclavicle 2.6766e-014 -8.34896e-015
rhumerus -23.3098 -14.1128 -81.226
rradius 31.7225
rwrist -0.604568
rhand -19.5357 22.7879
rfingers 7.12502
rthumb 6.78803 -7.08333
lclavicle 2.6766e-014 -8.34896e-015
lhumerus -40.8381 15.1338 75.0209
lradius 17.7334
lwrist -0.510384
lhand -26.5109 32.873
lfingers 7.12502
lthumb 0.0523072 62.8527
rfemur 7.44326 2.11816 27.1966
rtibia 46.0921
rfoot 4.88556 5.16624
rtoes -2.18495
lfemur -22.4905 -3.51315 -18.5219
ltibia 29.0509
lfoot -4.35937 -5.04835
ltoes -2.89035
435
root 0.156916 17.8056 14.9662 -2.93645 -4.37335 -3.67521
lowerback 8.80149 2.10002 4.14377
upperback -0.0749621 3.25842 0.745092
thorax -4.82776 1.51853 -1.96281
lowerneck -15.9626 -3.13528 -1.69066
upperneck 21.4775 -4.28154 1.44377
head 9.48548 -1.96863 0.232254
rclavicle -4.91355e-014 -1.27222e-014
rhumerus -23.6387 -14.5006 -81.0792
rradius 31.8992
rwrist -1.15686
rhand -18.6452 21.6995
rfingers 7.12502
rthumb 7.6476 -8.14219
lclavicle -4.91355e-014 -1.27222e-014
lhumerus -41.0829 14.4403 75.3101
lradius 18.5269
lwrist 0.419794
lhand -24.8838 25.837
lfingers 7.12502
lthumb 1.62377 55.8106
rfemur 6.25673 1.95631 26.7535
rtibia 48.5958
rfoot 8.24316 4.86585
rtoes 3.08017
lfemur -21.862 -3.21666 -18.9169
ltibia 29.6872
lfoot -4.97953 -5.59042
ltoes 1.65219
436
root 0.173979 17.8245 15.1691 -3.0892 -4.5191 -3.42651
lowerback 9.02102 2.15311 3.93867
upperback -0.129687 3.31809 0.69347
thorax -5.01317 1.54708 -1.92131
lowerneck -15.9424 -3.15793 -1.69227
upperneck 21.5424 -4.31578 1.447
head 9.50516 -1.98409 0.229062
rclavicle -1.79384e-014 -9.93923e-015
rhumerus -24.1506 -14.9863 -80.8691
rradius 31.4212
rwrist -0.723864
rhand -18.701 22.9844
rfingers 7.12502
rthumb 7.59379 -6.85932
lclavicle -1.79384e-014 -9.93923e-015
lhumerus -41.2501 13.6706 75.7465
lradius 19.6278
lwrist 1.56502
lhand -24.9964 25.2257
lfingers 7.12502
lthumb 1.51505 55.2001
rfemur 4.89262 1.88217 26.2293
rtibia 51.2141
rfoot 11.7193 4.76602
rtoes 5.87653
lfemur -21.2195 -2.94385 -19.4247
ltibia 30.1504
lfoot -5.343 -5.9818
ltoes 4.54016
